# xmcd CD database file
#
# Track frame offsets:
#	150
#	24560
#	53797
#	67895
#	79060
#	95742
#	109230
#	129960
#	150062
#	176567
#	198517
#	218647
#	243250
#	273707
#
# Disc length: 4033 seconds
#
# Revision: 0
# Processed by: cddbd v1.5.2PL0 Copyright (c) Steve Scherf et al.
# Submitted via: CDex 1.70beta2
#
DISCID=b70fbf0e
DTITLE=Gary Potter - Grace Notes
DYEAR=1992
DGENRE=Jazz
TTITLE0=Move
TTITLE1=Toutes Directions
TTITLE2=Cannonball Rag
TTITLE3=Wooper Snooper
TTITLE4=Misty
TTITLE5=Moppin' The Bride
TTITLE6=Grace
TTITLE7=Daisy Daisy
TTITLE8=Blue Drag
TTITLE9=J'Attendrai
TTITLE10=Provenance
TTITLE11=Sim
TTITLE12=Swing 41
TTITLE13=It Don't Mean A Thing
EXTD=YEAR: 1992
EXTT0=
EXTT1=
EXTT2=
EXTT3=
EXTT4=
EXTT5=
EXTT6=
EXTT7=
EXTT8=
EXTT9=
EXTT10=
EXTT11=
EXTT12=
EXTT13=
PLAYORDER=
